<svg width="123" height="123" viewBox="0 0 123 123" fill="none" xmlns="http://www.w3.org/2000/svg">
<rect width="123" height="123" rx="32" fill="url(#paint0_linear_0_3)"/>
<path opacity="0.16" d="M48.036 98.8832L28.3003 98.8327L28.4883 25.3721L63.6836 25.4621C80.7878 25.5059 93.0504 32.3352 93.0089 48.5623C92.9727 62.7062 83.4178 68.9314 70.9157 69.9959C78.4763 71.8792 81.7535 76.6022 85.4665 82.4228L95.9498 99.0058L73.4731 98.9483L61.353 79.2911C58.4049 74.4592 55.6686 72.5883 49.6383 72.5729L48.1033 72.5689L48.036 98.8832ZM63.858 43.0055L48.1791 42.9654L48.1437 56.7804L63.8226 56.8205C69.4144 56.8348 72.1616 54.4297 72.1731 49.9344C72.1849 45.3294 69.4498 43.0198 63.858 43.0055Z" fill="url(#paint1_linear_0_3)"/>
<path opacity="0.16" d="M47.9429 96.213L28.221 95.4737L30.9727 22.0645L66.1434 23.3828C83.2357 24.0235 95.2525 31.2765 94.6446 47.4923C94.1149 61.6263 84.3485 67.5143 71.8169 68.1418C79.3071 70.2878 82.4175 75.1223 85.9251 81.069L95.8233 98.0077L73.3623 97.1658L61.9356 77.0976C59.158 72.1658 56.4886 70.2005 50.4625 69.9746L48.9286 69.9171L47.9429 96.213ZM65.7054 40.9216L50.0375 40.3343L49.52 54.1396L65.1879 54.7269C70.7758 54.9364 73.6053 52.6286 73.7737 48.1364C73.9462 43.5346 71.2933 41.131 65.7054 40.9216Z" fill="url(#paint2_linear_0_3)"/>
<path opacity="0.08" d="M48.0206 93.5784L28.3365 92.1514L33.6484 18.8828L68.7517 21.4278C85.8113 22.6646 97.5676 30.3326 96.3942 46.5173C95.3715 60.6242 85.4056 66.1678 72.8597 66.3575C80.2705 68.7636 83.2103 73.7038 86.5082 79.7692L95.8092 97.0431L73.3912 95.4178L62.6719 74.963C60.0681 69.9373 57.469 67.88 51.4544 67.444L49.9234 67.333L48.0206 93.5784ZM67.7019 38.9406L52.064 37.8069L51.0651 51.5857L66.703 52.7195C72.2801 53.1238 75.1885 50.9162 75.5135 46.4326C75.8465 41.8396 73.2791 39.3449 67.7019 38.9406Z" fill="url(#paint3_linear_0_3)"/>
<path opacity="0.04" d="M47.3015 91.0809L27.6792 88.9677L35.5449 15.9292L70.538 19.6977C87.544 21.5291 99.0255 29.6028 97.288 45.7366C95.7736 59.7993 85.6203 64.9917 73.0755 64.7434C80.3978 67.4067 83.1634 72.4464 86.2476 78.6233L94.9401 96.2112L72.5925 93.8045L62.5935 72.9882C60.1667 67.8746 57.641 65.7279 51.6453 65.0822L50.1191 64.9178L47.3015 91.0809ZM68.8777 37.1632L53.2888 35.4844L51.8096 49.22L67.3984 50.8988C72.9581 51.4975 75.9417 49.3928 76.423 44.9232C76.9161 40.3447 74.4373 37.7619 68.8777 37.1632Z" fill="url(#paint4_linear_0_3)"/>
<g filter="url(#filter0_dd_0_3)">
<path d="M46.9004 99.9897H27.1646V26.5288H62.3601C79.4644 26.5288 91.7444 33.3267 91.7444 49.5539C91.7444 63.6978 82.2055 69.9475 69.7061 71.0439C77.2715 72.9079 80.5608 77.6225 84.2887 83.4336L94.8144 99.9897H72.3376L60.1672 80.3636C57.2068 75.5393 54.4658 73.6754 48.4354 73.6754H46.9004V99.9897ZM62.5793 44.0717H46.9004V57.8868H62.5793C68.1711 57.8868 70.9122 55.4746 70.9122 50.9792C70.9122 46.3742 68.1711 44.0717 62.5793 44.0717Z" fill="url(#paint5_linear_0_3)"/>
</g>
<defs>
<filter id="filter0_dd_0_3" x="19.1646" y="22.5288" width="83.6498" height="89.4608" filterUnits="userSpaceOnUse" color-interpolation-filters="sRGB">
<feFlood flood-opacity="0" result="BackgroundImageFix"/>
<feColorMatrix in="SourceAlpha" type="matrix" values="0 0 0 0 0 0 0 0 0 0 0 0 0 0 0 0 0 0 127 0" result="hardAlpha"/>
<feOffset dy="4"/>
<feGaussianBlur stdDeviation="4"/>
<feColorMatrix type="matrix" values="0 0 0 0 0 0 0 0 0 0 0 0 0 0 0 0 0 0 0.06 0"/>
<feBlend mode="normal" in2="BackgroundImageFix" result="effect1_dropShadow_0_3"/>
<feColorMatrix in="SourceAlpha" type="matrix" values="0 0 0 0 0 0 0 0 0 0 0 0 0 0 0 0 0 0 127 0" result="hardAlpha"/>
<feOffset/>
<feGaussianBlur stdDeviation="2"/>
<feColorMatrix type="matrix" values="0 0 0 0 0 0 0 0 0 0 0 0 0 0 0 0 0 0 0.04 0"/>
<feBlend mode="normal" in2="effect1_dropShadow_0_3" result="effect2_dropShadow_0_3"/>
<feBlend mode="normal" in="SourceGraphic" in2="effect2_dropShadow_0_3" result="shape"/>
</filter>
<linearGradient id="paint0_linear_0_3" x1="61.5" y1="1.72853e-06" x2="119.5" y2="127" gradientUnits="userSpaceOnUse">
<stop stop-color="#1D7BC3"/>
<stop offset="1" stop-color="#172B80"/>
</linearGradient>
<linearGradient id="paint1_linear_0_3" x1="62.3131" y1="25.4586" x2="62.125" y2="98.9192" gradientUnits="userSpaceOnUse">
<stop stop-color="white"/>
<stop offset="0.769231" stop-color="white" stop-opacity="0"/>
</linearGradient>
<linearGradient id="paint2_linear_0_3" x1="64.7738" y1="23.3314" x2="62.0222" y2="96.7407" gradientUnits="userSpaceOnUse">
<stop stop-color="white"/>
<stop offset="0.769231" stop-color="white" stop-opacity="0"/>
</linearGradient>
<linearGradient id="paint3_linear_0_3" x1="67.3848" y1="21.3287" x2="62.0729" y2="94.5972" gradientUnits="userSpaceOnUse">
<stop stop-color="white"/>
<stop offset="0.769231" stop-color="white" stop-opacity="0"/>
</linearGradient>
<linearGradient id="paint4_linear_0_3" x1="69.1753" y1="19.5509" x2="61.3096" y2="92.5895" gradientUnits="userSpaceOnUse">
<stop stop-color="white"/>
<stop offset="0.769231" stop-color="white" stop-opacity="0"/>
</linearGradient>
<linearGradient id="paint5_linear_0_3" x1="60.9895" y1="26.5288" x2="60.9895" y2="99.9897" gradientUnits="userSpaceOnUse">
<stop stop-color="#F0F8FF"/>
<stop offset="1" stop-color="#D7DEEF"/>
</linearGradient>
</defs>
</svg>
