<svg width="123" height="123" viewBox="0 0 123 123" fill="none" xmlns="http://www.w3.org/2000/svg">
<rect width="123" height="123" rx="32" fill="url(#paint0_linear_2970_573)"/>
<path opacity="0.16" d="M48.036 97.8832L28.3003 97.8327L28.4883 24.3721L63.6836 24.4621C80.7878 24.5059 93.0504 31.3352 93.0089 47.5623C92.9727 61.7062 83.4178 67.9314 70.9157 68.9959C78.4763 70.8792 81.7535 75.6022 85.4665 81.4228L95.9498 98.0058L73.4731 97.9483L61.353 78.2911C58.4049 73.4592 55.6687 71.5883 49.6383 71.5729L48.1033 71.5689L48.036 97.8832ZM63.858 42.0055L48.1791 41.9654L48.1437 55.7804L63.8226 55.8205C69.4144 55.8348 72.1616 53.4297 72.1731 48.9344C72.1849 44.3294 69.4498 42.0198 63.858 42.0055Z" fill="url(#paint1_linear_2970_573)"/>
<path opacity="0.16" d="M47.9429 95.213L28.221 94.4737L30.9727 21.0645L66.1434 22.3828C83.2357 23.0235 95.2525 30.2765 94.6446 46.4923C94.1149 60.6263 84.3485 66.5143 71.8169 67.1418C79.3071 69.2878 82.4175 74.1223 85.9251 80.069L95.8233 97.0077L73.3623 96.1658L61.9356 76.0976C59.158 71.1658 56.4886 69.2005 50.4625 68.9746L48.9286 68.9171L47.9429 95.213ZM65.7054 39.9216L50.0375 39.3343L49.52 53.1396L65.1879 53.7269C70.7758 53.9364 73.6053 51.6286 73.7737 47.1364C73.9462 42.5346 71.2933 40.131 65.7054 39.9216Z" fill="url(#paint2_linear_2970_573)"/>
<path opacity="0.16" d="M48.0206 92.5784L28.3365 91.1514L33.6484 17.8828L68.7517 20.4278C85.8113 21.6646 97.5676 29.3326 96.3942 45.5173C95.3715 59.6242 85.4056 65.1678 72.8597 65.3575C80.2705 67.7636 83.2103 72.7038 86.5082 78.7692L95.8092 96.0431L73.3912 94.4178L62.6719 73.963C60.0681 68.9373 57.469 66.88 51.4544 66.444L49.9234 66.333L48.0206 92.5784ZM67.7019 37.9406L52.064 36.8069L51.0651 50.5857L66.703 51.7195C72.2801 52.1238 75.1885 49.9162 75.5135 45.4326C75.8465 40.8396 73.2791 38.3449 67.7019 37.9406Z" fill="url(#paint3_linear_2970_573)"/>
<path opacity="0.16" d="M47.3015 90.0809L27.6792 87.9677L35.5449 14.9292L70.538 18.6977C87.544 20.5291 99.0255 28.6028 97.288 44.7366C95.7736 58.7993 85.6203 63.9916 73.0755 63.7434C80.3978 66.4067 83.1634 71.4464 86.2476 77.6233L94.9401 95.2112L72.5925 92.8045L62.5935 71.9882C60.1667 66.8746 57.641 64.7279 51.6453 64.0822L50.1191 63.9178L47.3015 90.0809ZM68.8777 36.1632L53.2888 34.4844L51.8096 48.22L67.3984 49.8988C72.9581 50.4975 75.9417 48.3928 76.423 43.9232C76.9161 39.3447 74.4373 36.7619 68.8777 36.1632Z" fill="url(#paint4_linear_2970_573)"/>
<g filter="url(#filter0_dd_2970_573)">
<path d="M46.8998 98.9897H27.1641V25.5288H62.3595C79.4638 25.5288 91.7438 32.3267 91.7438 48.5538C91.7438 62.6978 82.2049 68.9475 69.7056 70.0439C77.2709 71.9078 80.5602 76.6225 84.2881 82.4336L94.8138 98.9897H72.337L60.1666 79.3636C57.2063 74.5393 54.4652 72.6753 48.4348 72.6753H46.8998V98.9897ZM62.5788 43.0717H46.8998V56.8867H62.5788C68.1706 56.8867 70.9116 54.4746 70.9116 49.9792C70.9116 45.3742 68.1706 43.0717 62.5788 43.0717Z" fill="url(#paint5_linear_2970_573)"/>
</g>
<defs>
<filter id="filter0_dd_2970_573" x="19.1641" y="21.5288" width="83.6504" height="89.4609" filterUnits="userSpaceOnUse" color-interpolation-filters="sRGB">
<feFlood flood-opacity="0" result="BackgroundImageFix"/>
<feColorMatrix in="SourceAlpha" type="matrix" values="0 0 0 0 0 0 0 0 0 0 0 0 0 0 0 0 0 0 127 0" result="hardAlpha"/>
<feOffset dy="4"/>
<feGaussianBlur stdDeviation="4"/>
<feColorMatrix type="matrix" values="0 0 0 0 0 0 0 0 0 0 0 0 0 0 0 0 0 0 0.06 0"/>
<feBlend mode="normal" in2="BackgroundImageFix" result="effect1_dropShadow_2970_573"/>
<feColorMatrix in="SourceAlpha" type="matrix" values="0 0 0 0 0 0 0 0 0 0 0 0 0 0 0 0 0 0 127 0" result="hardAlpha"/>
<feOffset/>
<feGaussianBlur stdDeviation="2"/>
<feColorMatrix type="matrix" values="0 0 0 0 0 0 0 0 0 0 0 0 0 0 0 0 0 0 0.04 0"/>
<feBlend mode="normal" in2="effect1_dropShadow_2970_573" result="effect2_dropShadow_2970_573"/>
<feBlend mode="normal" in="SourceGraphic" in2="effect2_dropShadow_2970_573" result="shape"/>
</filter>
<linearGradient id="paint0_linear_2970_573" x1="61.5" y1="1.72853e-06" x2="119.5" y2="127" gradientUnits="userSpaceOnUse">
<stop stop-color="#1D7BC3"/>
<stop offset="1" stop-color="#172B80"/>
</linearGradient>
<linearGradient id="paint1_linear_2970_573" x1="62.3131" y1="24.4586" x2="62.125" y2="97.9192" gradientUnits="userSpaceOnUse">
<stop stop-color="white"/>
<stop offset="0.769231" stop-color="white" stop-opacity="0"/>
</linearGradient>
<linearGradient id="paint2_linear_2970_573" x1="64.7738" y1="22.3314" x2="62.0222" y2="95.7407" gradientUnits="userSpaceOnUse">
<stop stop-color="white"/>
<stop offset="0.769231" stop-color="white" stop-opacity="0"/>
</linearGradient>
<linearGradient id="paint3_linear_2970_573" x1="67.3848" y1="20.3287" x2="62.0729" y2="93.5972" gradientUnits="userSpaceOnUse">
<stop stop-color="white"/>
<stop offset="0.769231" stop-color="white" stop-opacity="0"/>
</linearGradient>
<linearGradient id="paint4_linear_2970_573" x1="69.1753" y1="18.5509" x2="61.3096" y2="91.5895" gradientUnits="userSpaceOnUse">
<stop stop-color="white"/>
<stop offset="0.769231" stop-color="white" stop-opacity="0"/>
</linearGradient>
<linearGradient id="paint5_linear_2970_573" x1="60.9889" y1="25.5288" x2="60.9889" y2="98.9897" gradientUnits="userSpaceOnUse">
<stop stop-color="#F0F8FF"/>
<stop offset="1" stop-color="#D7DEEF"/>
</linearGradient>
</defs>
</svg>
