<svg width="800" height="800" viewBox="0 0 800 800" fill="none" xmlns="http://www.w3.org/2000/svg">
<rect width="800" height="800" rx="176" fill="url(#paint0_linear_0_3)"/>
<path d="M425.748 115.066C544.149 85.5457 629.156 112.849 629.156 228.617C629.156 329.523 563.124 390.574 476.6 419.969C528.97 420.209 551.739 448.168 577.544 483.191L650.408 583.141L494.816 621.934L410.568 502.922C390.075 473.614 371.101 465.046 329.357 475.454L318.731 478.104V665.836L182.114 699.899V175.812L425.748 115.066ZM331.028 199.88C328.181 199.73 325.356 200.454 322.927 201.956C320.499 203.458 318.581 205.667 317.428 208.29C316.276 210.913 315.942 213.828 316.473 216.646C317.004 219.464 318.373 222.053 320.4 224.07L372.074 276.094C372.591 276.615 373.257 276.96 373.979 277.082C374.701 277.204 375.443 277.096 376.101 276.774L449.919 250.291L382.275 289.504C381.617 289.826 381.074 290.346 380.723 290.992C380.373 291.639 380.231 292.379 380.319 293.11L389.109 366.07C389.385 368.732 390.413 371.259 392.07 373.353C393.727 375.446 395.945 377.019 398.462 377.886C398.844 378.019 399.232 378.135 399.626 378.234C402.384 378.949 405.293 378.797 407.963 377.801C410.634 376.804 412.938 375.01 414.565 372.658L518.053 229.031C518.068 228.989 518.096 228.906 518.096 228.906C519.515 226.841 520.362 224.433 520.55 221.93C520.739 219.426 520.261 216.917 519.168 214.66C518.074 212.404 516.404 210.481 514.328 209.088C512.251 207.695 509.843 206.883 507.352 206.735L507.228 206.691L331.028 199.88ZM450.025 247.768C449.865 247.636 449.848 247.594 450.139 247.689C450.093 247.705 450.053 247.73 450.025 247.768Z" fill="url(#paint1_linear_0_3)"/>
<defs>
<linearGradient id="paint0_linear_0_3" x1="400" y1="1.12425e-05" x2="777.236" y2="826.016" gradientUnits="userSpaceOnUse">
<stop stop-color="#F0F8FF"/>
<stop offset="1" stop-color="#E0E8FB"/>
</linearGradient>
<linearGradient id="paint1_linear_0_3" x1="398.585" y1="119.621" x2="512.32" y2="575.788" gradientUnits="userSpaceOnUse">
<stop stop-color="#166FFF"/>
<stop offset="1" stop-color="#3DB1EB"/>
</linearGradient>
</defs>
</svg>
